<svg version="1.1" baseProfile="full" viewBox="0 0 400 400" xmlns="http://www.w3.org/2000/svg" id="diagram">
	<path d="M 200 200
			 H 250
			 A 50 50 0 0 0 200 150
			 Z" stroke="deepskyblue" fill="deepskyblue" stroke-width="1"/>
	<path d="M 200 200
			 H 250
			 L 200 300
			 Z" stroke="deepskyblue" fill="deepskyblue" stroke-width="1"/>
	<rect x="100" y="200" width="100" height="100" stroke="deepskyblue" fill="deepskyblue" stroke-width="1"/>
	<line x1="200" x2="200" y1="50" y2="350" stroke="black"/>
	<line x1="50" x2="350" y1="200" y2="200" stroke="black"/>
	<line x1="195" x2="200" y1="65" y2="50" stroke="black"/>
	<line x1="200" x2="205" y1="50" y2="65" stroke="black"/>
	<line x1="335" x2="350" y1="195" y2="200" stroke="black"/>
	<line x1="350" x2="335" y1="200" y2="205" stroke="black"/>
	<line x1="100" x2="100" y1="195" y2="205" stroke="black"/>
	<line x1="150" x2="150" y1="195" y2="205" stroke="black"/>
	<line x1="250" x2="250" y1="195" y2="205" stroke="black"/>
	<line x1="300" x2="300" y1="195" y2="205" stroke="black"/>
	<line x1="195" x2="205" y1="100" y2="100" stroke="black"/>
	<line x1="195" x2="205" y1="150" y2="150" stroke="black"/>
	<line x1="195" x2="205" y1="250" y2="250" stroke="black"/>
	<line x1="195" x2="205" y1="300" y2="300" stroke="black"/>
	<text x="95" y="195">R</text>
	<text x="145" y="195">R/2</text>
	<text x="245" y="195">R/2</text>
	<text x="295" y="195">R</text>
	<text x="205" y="105">R</text>
	<text x="205" y="155">R/2</text>
	<text x="205" y="255">R/2</text>
	<text x="205" y="305">R</text>
	<text x="210" y="60">y</text>
	<text x="340" y="190">x</text>
</svg>